<?xml version="1.0" encoding="UTF-8"?> <svg xmlns="http://www.w3.org/2000/svg" width="261" height="160" viewBox="0 0 261 160" fill="none"><g clip-path="url(#clip0_495_3924)"><path d="M87.0898 69.5102C87.8598 69.1902 88.82 69.0202 89.96 69.0202C91.17 69.0202 92.1599 69.2202 92.9399 69.6002C93.7199 69.9902 94.2899 70.5302 94.6699 71.2202C95.0399 71.9102 95.2297 72.7102 95.2297 73.6102H102.97C102.97 71.4802 102.43 69.6102 101.35 67.9902C100.27 66.3702 98.7699 65.1102 96.8499 64.2102C94.9299 63.3102 92.6799 62.8602 90.1099 62.8602C87.5399 62.8602 85.3399 63.2602 83.3799 64.0702C81.4199 64.8802 79.8798 66.0102 78.7598 67.4602C77.6398 68.9102 77.0798 70.6202 77.0798 72.5902C77.0798 74.1302 77.3898 75.4802 78.0198 76.6302C78.6498 77.7802 79.4998 78.7902 80.5898 79.6502C81.6798 80.5102 82.9298 81.2702 84.3298 81.9102C85.7298 82.5502 87.2198 83.1302 88.7698 83.6402C90.5798 84.2102 91.9499 84.7502 92.8699 85.2602C93.7899 85.7702 94.4097 86.3002 94.7297 86.8602C95.0497 87.4202 95.21 88.0802 95.21 88.8402C95.21 89.4902 95.0299 90.0902 94.6899 90.6302C94.3399 91.1702 93.7998 91.6002 93.0798 91.9202C92.3598 92.2402 91.4198 92.4002 90.2598 92.4002C89.2698 92.4002 88.3798 92.3102 87.5798 92.1102C86.7798 91.9202 86.0898 91.6102 85.5298 91.1702C84.9698 90.7302 84.5397 90.1702 84.2397 89.4702C83.9497 88.7702 83.7998 87.9102 83.7998 86.9002H76.0298C76.0298 88.9002 76.4297 90.6302 77.2397 92.0902C78.0497 93.5502 79.1398 94.7602 80.5198 95.7102C81.8898 96.6602 83.4199 97.3702 85.1099 97.8202C86.7899 98.2702 88.5098 98.5002 90.2598 98.5002C92.8298 98.5002 95.0697 98.1202 96.9797 97.3602C98.8897 96.6002 100.36 95.4902 101.4 94.0402C102.44 92.5902 102.96 90.8402 102.96 88.8102C102.96 86.7802 102.52 85.2002 101.65 83.7802C100.78 82.3702 99.4798 81.1402 97.7698 80.1102C96.0498 79.0802 93.9299 78.1702 91.4099 77.3902C90.0299 76.9502 88.8499 76.5002 87.8599 76.0402C86.8699 75.5902 86.1199 75.0902 85.6099 74.5502C85.0899 74.0102 84.8398 73.3802 84.8398 72.6702C84.8398 71.9602 85.0299 71.3502 85.3999 70.8002C85.7699 70.2502 86.3499 69.8202 87.1199 69.4902L87.0898 69.5102Z" fill="black"></path><path d="M119.01 92.4102C118.41 92.4102 117.91 92.3402 117.52 92.2002C117.13 92.0602 116.85 91.8002 116.67 91.4302C116.49 91.0602 116.41 90.5302 116.41 89.8502V77.6802H120.72V72.2702H116.41V65.9102H108.95V72.2702H105.38V77.6802H108.95V90.7302C108.95 92.5702 109.26 94.0702 109.89 95.2202C110.52 96.3702 111.41 97.2102 112.56 97.7302C113.71 98.2502 115.08 98.5202 116.67 98.5202C117.53 98.5202 118.31 98.4602 119.01 98.3502C119.71 98.2402 120.37 98.0702 120.99 97.8502V92.2502C120.75 92.3002 120.47 92.3402 120.14 92.3702C119.81 92.4002 119.44 92.4202 119.01 92.4202V92.4102Z" fill="black"></path><path d="M146.9 91.6202V80.9302C146.9 78.9002 146.44 77.2002 145.52 75.8502C144.6 74.4902 143.35 73.4802 141.77 72.8002C140.19 72.1302 138.39 71.7902 136.37 71.7902C134.12 71.7902 132.16 72.1602 130.5 72.9102C128.84 73.6602 127.55 74.6502 126.64 75.9002C125.73 77.1502 125.27 78.5602 125.27 80.1302H132.7C132.7 79.5002 132.83 78.9702 133.09 78.5502C133.35 78.1302 133.72 77.8102 134.21 77.5902C134.69 77.3702 135.28 77.2602 135.96 77.2602C137.17 77.2602 138.04 77.5902 138.59 78.2502C139.14 78.9102 139.41 79.7902 139.41 80.9102V82.2702H136.65C132.65 82.2702 129.65 83.0202 127.66 84.5102C125.67 86.0002 124.67 88.0902 124.67 90.7702C124.67 92.2902 125.06 93.6402 125.85 94.8102C126.64 95.9802 127.7 96.8902 129.03 97.5502C130.36 98.2102 131.84 98.5402 133.46 98.5402C134.7 98.5402 135.77 98.3602 136.68 98.0002C137.58 97.6402 138.35 97.1802 138.99 96.6102C139.27 96.3502 139.54 96.0902 139.78 95.8102C139.95 96.6902 140.18 97.4402 140.47 98.0602H147.95V97.6602C147.62 96.9902 147.36 96.2202 147.18 95.3402C147 94.4602 146.91 93.2302 146.91 91.6602L146.9 91.6202ZM137.61 92.3502C136.91 92.7202 136.09 92.9102 135.13 92.9102C134.17 92.9102 133.5 92.6602 132.95 92.1602C132.4 91.6602 132.13 91.0302 132.13 90.2702C132.13 89.2402 132.49 88.3502 133.21 87.6002C133.93 86.8502 135.13 86.4802 136.8 86.4802H139.42V90.7002C139.36 90.8002 139.29 90.9102 139.22 91.0102C138.85 91.5302 138.31 91.9702 137.61 92.3402V92.3502Z" fill="black"></path><path d="M159.03 81.3702C159.25 80.3002 159.68 79.4302 160.31 78.7602C160.94 78.0902 161.86 77.7602 163.09 77.7602C163.98 77.7602 164.72 77.9602 165.31 78.3402C165.9 78.7302 166.34 79.2402 166.63 79.8902C166.92 80.5302 167.08 81.2402 167.09 82.0202H174.07C174.07 79.8802 173.61 78.0402 172.69 76.5202C171.77 75.0002 170.5 73.8302 168.88 73.0102C167.26 72.1902 165.38 71.7802 163.23 71.7802C160.56 71.7802 158.34 72.3602 156.57 73.5102C154.8 74.6602 153.47 76.2202 152.59 78.2002C151.71 80.1802 151.27 82.4002 151.27 84.8602V85.4602C151.27 87.9102 151.71 90.1202 152.59 92.0902C153.47 94.0702 154.8 95.6302 156.58 96.7802C158.36 97.9302 160.59 98.5102 163.27 98.5102C165.3 98.5102 167.13 98.1102 168.75 97.3002C170.37 96.4902 171.66 95.3702 172.62 93.9302C173.58 92.4902 174.06 90.8302 174.06 88.9402H167.08C167.06 89.6702 166.89 90.3102 166.57 90.8402C166.24 91.3802 165.79 91.8002 165.2 92.0902C164.61 92.3802 163.92 92.5302 163.13 92.5302C161.87 92.5302 160.93 92.2002 160.29 91.5502C159.65 90.9002 159.23 90.0402 159.01 88.9702C158.8 87.9002 158.69 86.7302 158.69 85.4602V84.8602C158.69 83.6002 158.8 82.4402 159.02 81.3702H159.03Z" fill="black"></path><path d="M202 72.2602H193.06L186.82 79.7902L185.73 81.2202V61.4302H178.27V98.0302H185.73V90.4102L188.07 88.0802L194.18 98.0302H202.74L192.87 82.9602L202 72.2602Z" fill="black"></path><path d="M213.95 61.4502H206.49V98.0302H213.95V61.4502Z" fill="black"></path><path d="M237.41 73.3602C235.7 72.3102 233.6 71.7902 231.11 71.7902C228.62 71.7902 226.37 72.3702 224.55 73.5202C222.73 74.6702 221.34 76.2602 220.37 78.2702C219.4 80.2902 218.92 82.5702 218.92 85.1302V86.0402C218.92 88.3102 219.44 90.3902 220.47 92.2802C221.5 94.1702 222.99 95.6802 224.94 96.8202C226.89 97.9602 229.22 98.5202 231.96 98.5202C234.47 98.5202 236.58 98.0402 238.3 97.0802C240.01 96.1202 241.27 95.0602 242.06 93.9002L238.53 89.7602C237.77 90.7302 236.86 91.4302 235.8 91.8702C234.74 92.3102 233.62 92.5302 232.43 92.5302C231.16 92.5302 230.07 92.2602 229.17 91.7102C228.26 91.1602 227.57 90.4002 227.1 89.4402C226.83 88.9002 226.64 88.3002 226.52 87.6502H242.65V84.5102C242.65 81.9402 242.21 79.7002 241.32 77.8102C240.43 75.9102 239.13 74.4402 237.42 73.3902L237.41 73.3602ZM235.35 82.6402H226.55C226.62 82.2102 226.7 81.7902 226.81 81.3902C227.1 80.2902 227.59 79.4102 228.28 78.7502C228.96 78.0902 229.89 77.7602 231.07 77.7602C232.05 77.7602 232.86 77.9402 233.49 78.3002C234.12 78.6602 234.58 79.1602 234.88 79.8002C235.18 80.4402 235.34 81.1902 235.36 82.0502V82.6502L235.35 82.6402Z" fill="black"></path><path d="M260.09 92.3602C259.76 92.3900 259.39 92.4102 258.96 92.4102C258.35 92.4102 257.86 92.3402 257.47 92.2002C257.08 92.0602 256.8 91.8002 256.62 91.4302C256.45 91.0602 256.36 90.5302 256.36 89.8502V77.6802H260.67V72.2702H256.36V65.9102H248.9V72.2702H245.33V77.6802H248.9V90.7302C248.9 92.5702 249.21 94.0702 249.84 95.2202C250.47 96.3702 251.36 97.2102 252.51 97.7302C253.66 98.2502 255.03 98.5202 256.62 98.5202C257.48 98.5202 258.26 98.4602 258.96 98.3502C259.66 98.2402 260.32 98.0702 260.94 97.8502V92.2502C260.7 92.3002 260.42 92.3402 260.09 92.3702V92.3602Z" fill="black"></path><path d="M32.6099 45L0.939941 66.12V76.39L6.2998 79.97L0.939941 83.54V93.81L32.6099 114.93L64.2798 93.81V83.54L58.9199 79.96L64.2798 76.39V66.12L32.6099 45ZM56.9299 88.68L51.3899 92.37L32.5999 104.9L8.26978 88.68L13.8098 84.99L32.5898 97.52L43.8499 90.01V79.98L51.3699 84.99L56.9099 88.69L56.9299 88.68ZM51.3899 74.95L32.5999 62.42L19.3599 71.25L26.8799 76.27L32.5999 72.45L43.8599 79.96L32.5999 87.47L21.3398 79.96L13.8198 74.94L8.27979 71.24L13.8198 67.54L32.5999 55.01L56.9299 71.23L51.3899 74.93V74.95Z" fill="#D1581F"></path></g><defs><clipPath id="clip0_495_3924"><rect width="260" height="160" fill="white" transform="translate(0.939941)"></rect></clipPath></defs></svg>